# xmcd
#
# Track frame offsets:
#  150
#  16562
#  44712
#  64870
#  85007
#
# Disc length: 1400 seconds
#
# Revision: 0
# Processed by: cddbd v1.5.1PL2 Copyright (c) Steve Scherf et al.
# Submitted via: Collectorz.com_Music_Collector 6.11
#
DISCID=34057605
DTITLE=Zeynep Mansur - Beyaz Sevdalar
DYEAR=1900
DGENRE=Pop - Turkish
TTITLE0=Zor Gelir
TTITLE1=Beyaz Sevdalar
TTITLE2=Zor Gelir (Remix)
TTITLE3=Beyaz Sevdalar (Remix)
TTITLE4=Remix
EXTD=
EXTT0=
EXTT1=
EXTT2=
EXTT3=
EXTT4=
PLAYORDER=
